<svg width="100" height="100" viewBox="0 0 100 100" fill="none" xmlns="http://www.w3.org/2000/svg">
<path d="M18.56 63V42.44H10.8V35.2H34.16V42.44H26.4V63H18.56ZM45.695 63.56C41.8283 63.56 38.6417 62.24 36.135 59.6C33.6283 56.96 32.375 53.4667 32.375 49.12C32.375 44.9333 33.7617 41.48 36.535 38.76C39.3083 36.0133 42.815 34.64 47.055 34.64C50.495 34.64 53.3483 35.44 55.615 37.04C57.9083 38.64 59.375 40.92 60.015 43.88L51.975 45.8C51.655 44.44 51.0283 43.4133 50.095 42.72C49.1617 42 48.0417 41.64 46.735 41.64C44.975 41.64 43.5083 42.3333 42.335 43.72C41.1617 45.1067 40.575 46.9067 40.575 49.12C40.575 51.4667 41.2283 53.3067 42.535 54.64C43.8417 55.9733 45.4817 56.64 47.455 56.64C49.055 56.64 50.3617 56.36 51.375 55.8C52.415 55.2133 53.1217 54.4667 53.495 53.56H46.855V47.52H61.055V63H54.055V59.12C53.2817 60.6933 52.2283 61.8267 50.895 62.52C49.5617 63.2133 47.8283 63.56 45.695 63.56ZM85.6825 55.72C86.0292 55.72 86.4158 55.6933 86.8425 55.64V62.88C86.1492 63.0933 85.3758 63.2 84.5225 63.2C81.8025 63.2 79.5225 62.64 77.6825 61.52C75.8692 60.4 74.3358 58.2133 73.0825 54.96L72.7625 54.16H70.5225V63H62.6825V35.2H75.9225C79.0158 35.2 81.5625 36.0667 83.5625 37.8C85.5892 39.5067 86.6025 41.84 86.6025 44.8C86.6025 46.8267 86.0958 48.5067 85.0825 49.84C84.0692 51.1467 82.6425 52.08 80.8025 52.64C81.3625 53.52 81.9358 54.2 82.5225 54.68C83.1092 55.16 83.6158 55.4533 84.0425 55.56C84.4958 55.6667 85.0425 55.72 85.6825 55.72ZM70.5225 41.92V47.48H74.8025C77.2025 47.48 78.4025 46.5467 78.4025 44.68C78.4025 42.84 77.1625 41.92 74.6825 41.92H70.5225Z" fill="black"/>
</svg>
