<svg width="17" height="17" viewBox="0 0 17 17" fill="none" xmlns="http://www.w3.org/2000/svg">
<path d="M7.57837 8.50016C7.57837 8.67697 7.64861 8.84654 7.77363 8.97157C7.89866 9.09659 8.06822 9.16683 8.24504 9.16683C8.42185 9.16683 8.59142 9.09659 8.71644 8.97157C8.84146 8.84654 8.9117 8.67697 8.9117 8.50016C8.9117 8.32335 8.84146 8.15378 8.71644 8.02876C8.59142 7.90373 8.42185 7.8335 8.24504 7.8335C8.06822 7.8335 7.89866 7.90373 7.77363 8.02876C7.64861 8.15378 7.57837 8.32335 7.57837 8.50016Z" stroke="#181818" stroke-linecap="round" stroke-linejoin="round"/>
<path d="M7.57837 13.1667C7.57837 13.3435 7.64861 13.513 7.77363 13.6381C7.89866 13.7631 8.06822 13.8333 8.24504 13.8333C8.42185 13.8333 8.59142 13.7631 8.71644 13.6381C8.84146 13.513 8.9117 13.3435 8.9117 13.1667C8.9117 12.9899 8.84146 12.8203 8.71644 12.6953C8.59142 12.5702 8.42185 12.5 8.24504 12.5C8.06822 12.5 7.89866 12.5702 7.77363 12.6953C7.64861 12.8203 7.57837 12.9899 7.57837 13.1667Z" stroke="#181818" stroke-linecap="round" stroke-linejoin="round"/>
<path d="M7.57837 3.83317C7.57837 4.00998 7.64861 4.17955 7.77363 4.30457C7.89866 4.4296 8.06822 4.49984 8.24504 4.49984C8.42185 4.49984 8.59142 4.4296 8.71644 4.30457C8.84146 4.17955 8.9117 4.00998 8.9117 3.83317C8.9117 3.65636 8.84146 3.48679 8.71644 3.36177C8.59142 3.23674 8.42185 3.1665 8.24504 3.1665C8.06822 3.1665 7.89866 3.23674 7.77363 3.36177C7.64861 3.48679 7.57837 3.65636 7.57837 3.83317Z" stroke="#181818" stroke-linecap="round" stroke-linejoin="round"/>
</svg>
